# xmcd CD database file
# Copyright (C) 1993-1998 Ti Kan
#
# Track frame offsets:
#	182
#	11080
#	21495
#	32230
#	44797
#	55175
#	66720
#	80027
#	90367
#	102282
#	112932
#	123112
#	133932
#	144705
#	155390
#	166035
#	178650
#	191412
#	204655
#
# Disc length: 2908 seconds
#
# Revision: 1
# Processed by: cddbd v1.4b41PL1 Copyright (c) Steve Scherf et al.
# Submitted via: CDValet v3.31 - Copyright (c) 1997 Greg Leichner
#
DISCID=100b5a13
DTITLE=The Everly Brothers - Everly Country
DYEAR=1900
DGENRE=
TTITLE0=Born To Lose
TTITLE1=Just One Time
TTITLE2=Release Me
TTITLE3=Sweet Dreams
TTITLE4=Silver Threads And Golden Needles
TTITLE5=Send Me The Pillow You Dream On
TTITLE6=I'm So Lonesome I Could Cry
TTITLE7=Oh, Lonesome Me
TTITLE8=I Walk The Line
TTITLE9=Lonely Street
TTITLE10=This Is The Last Song I'm Ever Going To Sing
TTITLE11=Please Help Me I'm Falling (In Love With You)
TTITLE12=Sleepless Nights
TTITLE13=Love Hurts
TTITLE14=It's All Over
TTITLE15=(I'd Be) A Legend In My Time
TTITLE16=Bowling Green
TTITLE17=It's My Time (mono)
TTITLE18=I Wonder If I Care As Much
EXTD=This album - released mid-1997 - combines the original "Ev
EXTD=erly Brothers Sing Great Country hits" (recorded in Nashvi
EXTD=lle, Tennessee, on the 20th and 21st June 1963) with a bonus
EXTD=selection of recordings, some of which appear on a CD for
EXTD=the first time.\n(All tracks licensed courtesy of Warner 
EXTD=Music UK Ltd.)
EXTT0=(Frankie Brown) Peer Music (UK) Ltd. Published 1963
EXTT1=(Don Gibson) Acuff-Rose Music Ltd.  Published 1963
EXTT2=(Miller/Williams/Yount/Harris) Acuff-Rose Music Ltd.  Pub
EXTT2=lished 1963
EXTT3=(Don Gibson) Acuff-Rose Music Ltd.  Published 1963
EXTT4=(Reynolds/Rhodes) Campbell Connelly and Co. Ltd.  Published
EXTT4=1963
EXTT5=(Hank Locklin) Acuff-Rose Music Ltd.  Published 1963
EXTT6=(Hank Williams) Acuff-Rose Music Ltd.  Published 1963
EXTT7=(Don Gibson) Acuff-Rose Music Ltd.  Published 1963
EXTT8=(John R. Cash) Carlin Music Corp.  Published 1963
EXTT9=(Sowder/Belew/Stevenson) Acuff-Rose Music Ltd.  Published
EXTT9=1963
EXTT10=(Curtis/Allison) Warner Chappell Music Ltd.  Published 1
EXTT10=963
EXTT11=(Robertson/Blair) Carlin Music Corp./Don Robertson Music
EXTT11=Corp.  Published 1963
EXTT12=(B. Bryant/F. Bryant) Acuff-Rose Music Ltd.  Published 1
EXTT12=960
EXTT13=(Boudleaux Bryant) Acuff-Rose Music Ltd.  Published 1960
EXTT14=(Don Everly) Acuff-Rose Music Ltd.  Published 1965
EXTT15=(Don Gibson) Acuff-Rose Music Ltd.  Published 1967
EXTT16=(Ertel/Slater) Acuff-Rose Music Ltd.  Published 1967
EXTT17=(John D. Loudermilk) Acuff-Rose Music Ltd.  Published 19
EXTT17=68
EXTT18=(Don Everly) Acuff-Rose Music Ltd.  Published 1968
PLAYORDER=
